<svg xmlns="http://www.w3.org/2000/svg" viewBox="0 0 30 30"><defs><style>.a{fill:#fff;}</style></defs><title>sns_is</title><path class="a" d="M6.25,18.44V12.68a1,1,0,0,0,0-.17,9.73,9.73,0,0,1,.21-2A4.48,4.48,0,0,1,9.15,7.31a6.67,6.67,0,0,1,2.42-.46l.55,0h5.76l.17,0a9.74,9.74,0,0,1,2,.22,4.48,4.48,0,0,1,3.19,2.66,6.67,6.67,0,0,1,.46,2.42c0,.18,0,.36,0,.55v5.76a1,1,0,0,0,0,.16,9.76,9.76,0,0,1-.22,2,4.47,4.47,0,0,1-2.66,3.19,6.67,6.67,0,0,1-2.42.46l-.55,0H12.12l-.16,0a9.76,9.76,0,0,1-2-.21,4.5,4.5,0,0,1-3.19-2.66A6.67,6.67,0,0,1,6.29,19C6.28,18.8,6.26,18.62,6.25,18.44Zm15.94-2.88h0c0-.73,0-1.46,0-2.19S22.11,12,22,11.31a3,3,0,0,0-.73-1.76A3.25,3.25,0,0,0,19,8.48c-1-.06-2-.08-3.08-.09s-2.05,0-3.08,0c-.68,0-1.37,0-2.06.12A3.07,3.07,0,0,0,9,9.25a3.25,3.25,0,0,0-1.07,2.34c-.06,1-.07,2.06-.09,3.08s0,2,0,3.08c0,.68,0,1.37.11,2.06a3.15,3.15,0,0,0,.74,1.76A3.21,3.21,0,0,0,11,22.64c1,.06,2.06.07,3.09.09s2.05,0,3.07,0a16.93,16.93,0,0,0,2.26-.15,2.85,2.85,0,0,0,2.48-2.2,5.4,5.4,0,0,0,.18-1.26C22.16,17.92,22.17,16.74,22.19,15.56Z"/><path class="a" d="M19.5,15.56A4.5,4.5,0,1,1,15,11.06,4.5,4.5,0,0,1,19.5,15.56ZM15,18.47a2.91,2.91,0,1,0-2.91-2.92A2.91,2.91,0,0,0,15,18.47Z"/><path class="a" d="M19.66,9.83a1.06,1.06,0,1,1-1.05,1.05A1.07,1.07,0,0,1,19.66,9.83Z"/></svg>